<svg width="237" height="92" viewBox="0 0 237 92" fill="none" xmlns="http://www.w3.org/2000/svg">
<g clip-path="url(#clip0_167_873)">
<path fill-rule="evenodd" clip-rule="evenodd" d="M-11.4909 0H251.364V91.6901H-11.4909V0Z" fill="#FEFEFE"/>
<path fill-rule="evenodd" clip-rule="evenodd" d="M44.2498 71.5574L57.1489 71.6424L57.125 34.6312L44.2498 71.5574Z" fill="#012D5C"/>
<path fill-rule="evenodd" clip-rule="evenodd" d="M2.66223 62.6203L16.0749 20.0356H2.66223V62.6203Z" fill="#012D5C"/>
<path fill-rule="evenodd" clip-rule="evenodd" d="M36.5581 20.0356H21.2703L1.14539 80.118H16.4451L36.5581 20.0356Z" fill="#F41C31"/>
<path d="M74.7418 44.9525C75.757 44.9525 76.6767 45.1225 77.5247 45.4625C78.3607 45.8025 79.0773 46.2518 79.6745 46.8225C80.2836 47.3811 80.7494 48.0611 81.0719 48.8261C81.4063 49.5911 81.5736 50.4047 81.5736 51.2668C81.5736 52.1289 81.4063 52.9546 81.0719 53.7196C80.7494 54.4846 80.2836 55.1525 79.6745 55.7232C79.0773 56.2939 78.3607 56.7432 77.5247 57.0832C76.6767 57.4232 75.757 57.581 74.7418 57.581H66.3574V37.6912H80.0209V42.1111H70.8602V44.9525H74.7418ZM74.5866 53.6346C75.2912 53.6346 75.8765 53.4039 76.3542 52.9303C76.832 52.4568 77.0708 51.8982 77.0708 51.2668C77.0708 50.6354 76.832 50.0889 76.3542 49.6154C75.8765 49.1418 75.2912 48.8989 74.5866 48.8989H70.8602V53.6346H74.5866ZM84.3684 37.6912H98.3424V42.1111H88.8711V45.2683H97.566V49.6882H88.8711V53.1611H98.6529V57.581H84.3684V37.6912ZM118.073 37.6912V57.581H113.57V42.1111H108.291L107.515 51.5825C107.348 53.5618 106.751 55.0918 105.735 56.1482C104.72 57.2167 103.394 57.7389 101.758 57.7389C101.519 57.7389 101.28 57.7389 101.054 57.7267C100.827 57.7146 100.624 57.7025 100.456 57.6782C100.253 57.666 100.062 57.6296 99.895 57.581V53.6346H100.516C101.221 53.6346 101.818 53.3796 102.308 52.8453C102.797 52.3232 103.084 51.5825 103.168 50.6354L104.254 37.6912H118.073ZM125.215 37.6912L128.942 44.1633L132.668 37.6912H137.637L131.737 47.4782L137.947 57.581H132.979L128.942 50.7932L124.905 57.581H119.936L126.147 47.4782L120.247 37.6912H125.215ZM147.431 37.6912C148.434 37.6912 149.377 37.8612 150.225 38.2133C151.073 38.5654 151.802 39.039 152.423 39.6704C153.044 40.2897 153.534 41.0061 153.88 41.8319C154.238 42.6454 154.418 43.5318 154.418 44.479C154.418 45.4261 154.238 46.3125 153.88 47.1382C153.534 47.9518 153.044 48.6804 152.423 49.2997C151.802 49.9189 151.073 50.4047 150.225 50.7446C149.377 51.0968 148.434 51.2668 147.431 51.2668H144.313V57.581H139.811V37.6912H147.431ZM147.431 46.8468C148.123 46.8468 148.72 46.6161 149.198 46.1425C149.676 45.669 149.915 45.1104 149.915 44.479C149.915 43.8476 149.676 43.3011 149.198 42.8276C148.72 42.354 148.123 42.1111 147.431 42.1111H144.313V46.8468H147.431ZM171.031 47.6361C171.031 46.8225 170.9 46.0575 170.625 45.3654C170.362 44.6733 169.992 44.0661 169.526 43.5683C169.06 43.0583 168.511 42.6697 167.89 42.3783C167.269 42.099 166.612 41.9533 165.907 41.9533C165.203 41.9533 164.546 42.099 163.925 42.3783C163.304 42.6697 162.754 43.0583 162.288 43.5683C161.823 44.0661 161.452 44.6733 161.19 45.3654C160.915 46.0575 160.783 46.8225 160.783 47.6361C160.783 48.4618 160.915 49.2147 161.19 49.9189C161.452 50.6111 161.823 51.2061 162.288 51.7161C162.754 52.2139 163.304 52.6146 163.925 52.8939C164.546 53.1853 165.203 53.3189 165.907 53.3189C166.612 53.3189 167.269 53.1853 167.89 52.8939C168.511 52.6146 169.06 52.2139 169.526 51.7161C169.992 51.2061 170.362 50.6111 170.625 49.9189C170.9 49.2147 171.031 48.4618 171.031 47.6361ZM175.534 47.6361C175.534 49.0689 175.283 50.3925 174.769 51.6189C174.268 52.8453 173.575 53.9139 172.715 54.8246C171.843 55.7353 170.816 56.4518 169.646 56.9739C168.475 57.4839 167.233 57.7389 165.907 57.7389C164.582 57.7389 163.339 57.4839 162.169 56.9739C160.998 56.4518 159.971 55.7353 159.099 54.8246C158.239 53.9139 157.547 52.8453 157.033 51.6189C156.532 50.3925 156.281 49.0689 156.281 47.6361C156.281 46.2275 156.532 44.904 157.033 43.6776C157.547 42.439 158.239 41.3704 159.099 40.4597C159.971 39.5369 160.998 38.8204 162.169 38.3105C163.339 37.7883 164.582 37.5333 165.907 37.5333C167.233 37.5333 168.475 37.7883 169.646 38.3105C170.816 38.8204 171.843 39.5369 172.715 40.4597C173.575 41.3704 174.268 42.439 174.769 43.6776C175.283 44.904 175.534 46.2275 175.534 47.6361ZM195.109 37.6912H199.146V57.581H194.644V47.6361L190.141 57.581H187.334L182.831 47.6361V57.581H178.329V37.6912H182.366L188.731 51.7404L195.109 37.6912ZM207.375 37.6912V49.5304L215.294 37.6912H219.331V57.581H214.828V45.7418L206.91 57.581H202.873V37.6912H207.375ZM231.597 57.581H227.094V42.1111H221.505V37.6912H237.199V42.1111H231.597V57.581Z" fill="#012D5C"/>
<path fill-rule="evenodd" clip-rule="evenodd" d="M59.5973 11.5599H44.3095L24.1965 71.6423H39.4843L59.5973 11.5599Z" fill="#F41C31"/>
</g>
<defs>
<clipPath id="clip0_167_873">
<rect width="237" height="92" fill="white"/>
</clipPath>
</defs>
</svg>
